<?xml version="1.0" encoding="UTF-8"?> <svg xmlns="http://www.w3.org/2000/svg" id="Layer_1" data-name="Layer 1" viewBox="0 0 868.4 145.3"><defs><style>.cls-1{fill:#fff;}</style></defs><path class="cls-1" d="M155.4,158.6c.3,5.2,4,6.8,6.5,7.4a14,14,0,0,0,3.9.7v1.6H117.7v-1.5c3-.5,9-1.8,9.7-7.8l.1-48.8c0-9.4-2.9-15-9.5-18.3-7-3.5-14.2-2.2-22,3.8l-.4.3v61.7c0,7.6,5.7,8.5,8.7,8.9h.2v1.6H56.9v-1.5c3.2-.4,10.1-1.8,10.1-8.8,0-30.3,0-102.7-.1-104.4-.7-9.7-2.2-11.6-11.8-14l-.4-3.2C62,34.5,95.8,25.9,95.8,25.9V88.5l8.5-5.9c10.9-7.1,21.4-9.2,31.7-6.7,11.3,2.8,17.9,10.9,18.6,23Z" transform="translate(0 -25.9)"></path><path class="cls-1" d="M50.8,154.6s-4.8,4.1-10.4,4.1c-8,0-11.3-4.3-11.3-10.3,0,0-.1-56.3-.1-62.1H50.8V77.6H29V45.4H25.3L.1,65.1l-.1,87a20.81,20.81,0,0,0,.8,5.6c1.7,5.7,7.6,13.6,21.3,13.5,22.2-.2,31.4-12.9,31.4-12.9l-2.7-3.7" transform="translate(0 -25.9)"></path><path class="cls-1" d="M196.8,118.8v-.6c-.3-10.6.8-18,3.8-24.9,2.3-5.3,5.7-8.4,10.1-9.3a15,15,0,0,1,8.2.4c5.5,2.1,8.5,8.9,7.9,17.7-.5,6.8-2.3,8.9-9.3,11-4.5,1.3-17.9,4.9-20.1,5.5Zm54,28.7c-9,7.6-21.4,10.6-33.3,6-17.6-6.7-18.8-25.7-18.8-25.7s20-5.5,29.3-8.1,19.2-5.4,29.4-8.2a47.77,47.77,0,0,0-11.3-25.3c-10.6-12.5-28-12.5-32.5-12.5-21.5,0-33.1,10.7-39.2,19-9.1,12.6-11.7,29.8-6.9,46.2s15.9,26.7,33.1,30.6c22,5,40.7-2,53.5-19.5Z" transform="translate(0 -25.9)"></path><path class="cls-1" d="M859.3,156V104.2a29.91,29.91,0,0,0-11.6-24c-6.5-5.1-16.7-6-24.4-4.1-12.6,3.2-24.1,12.3-24.1,12.3L794,77.5,760.9,87h0l.5,3.2a12.68,12.68,0,0,1,9.5,11.6c0,1,.2,54.3.2,54.3,0,6.1-5.3,9.4-10,10.5v1.5h47.2v-1.7c-4.1-.9-8.8-3.6-8.8-10.7,0-11.6-.1-59.2-.1-59.2s11.2-8.9,20.7-5.3c8.1,3,10.6,9.8,11,17.5,0,0,.2,26.6.1,47.6-.2,6-5.3,9.3-10,10.2v1.7h47.2v-1.6C864.1,165.7,859.3,163.1,859.3,156Z" transform="translate(0 -25.9)"></path><path class="cls-1" d="M591.8,162.1,529.4,77.4H494.3V79c1.5,0,3.1,1.2,4.3,2.3a20,20,0,0,1,2.7,3.1l61.8,83.8h35.1v-1.6C595.2,166.6,591.8,162.1,591.8,162.1Z" transform="translate(0 -25.9)"></path><path class="cls-1" d="M564,102.9a57.84,57.84,0,0,1-4.4,6.3l2.8,3.8,3.1-3.1c10-9.9,33-32.6,33-32.6H563.2c.2.2.4.5.7.8C569.1,85.2,568.6,95.3,564,102.9Z" transform="translate(0 -25.9)"></path><path class="cls-1" d="M528.8,142.8a40,40,0,0,1,4.2-6l-2.8-3.8-2.8,2.8c-10,9.9-33,32.6-33,32.6h35.3c-.2-.2-.4-.5-.7-.8C523.7,160.6,524.2,150.4,528.8,142.8Z" transform="translate(0 -25.9)"></path><path class="cls-1" d="M687.8,123.9a86.85,86.85,0,0,1,.7-22.3,43.36,43.36,0,0,1,2.5-8.9c3-7,7.7-10.9,14-11.4h.9a16.21,16.21,0,0,1,13.3,5.5c5.6,6,7.7,13.4,9.5,21.2.7,3.2,2,13.3,2,13.3a91.58,91.58,0,0,1-.7,22.3,41.65,41.65,0,0,1-2.5,8.9c-3,7-7.7,10.9-14,11.5-.2,0-1,.1-1.1.1-4.8.4-9.4-1.6-13.1-5.6-5.6-6-7.7-13.4-9.5-21.2a106.13,106.13,0,0,1-1.9-11.7Zm-27.6-14.2c-5,22.3,1.4,37.3,13.5,49.4,10.1,10.1,24.5,11.8,32.1,12,29.1.9,49.2-12.7,52.8-41.9,3.4-27.1-12.7-48.1-32.2-53.2a62.36,62.36,0,0,0-36.5,1.9S665.9,84.4,660.2,109.7Z" transform="translate(0 -25.9)"></path><path class="cls-1" d="M428.4,123.9a86.85,86.85,0,0,1,.7-22.3,43.36,43.36,0,0,1,2.5-8.9c3-7,7.7-10.9,14-11.4h.9a16.21,16.21,0,0,1,13.3,5.5c5.6,6,7.7,13.4,9.5,21.2.7,3.2,2,13.3,2,13.3a91.58,91.58,0,0,1-.7,22.3,41.65,41.65,0,0,1-2.5,8.9c-3,7-7.7,10.9-14,11.5-.2,0-1,.1-1.1.1-4.8.4-9.4-1.6-13.1-5.6-5.6-6-7.7-13.4-9.5-21.2a106.13,106.13,0,0,1-1.9-11.7Zm-27.6-14.2c-5,22.3,1.4,37.3,13.5,49.4,10.1,10.1,24.5,11.8,32.1,12,29.1.9,49.2-12.7,52.8-41.9,3.4-27.1-12.7-48.1-32.2-53.2a62.36,62.36,0,0,0-36.5,1.9C430.6,77.9,406.6,84.4,400.8,109.7Z" transform="translate(0 -25.9)"></path><path class="cls-1" d="M657.1,154.6s-4.8,4.1-10.4,4.1c-8,0-11.3-4.3-11.3-10.3,0,0-.1-56.3-.1-62.1h21.8V77.6H635.3V45.4h-3.7L606.4,65.1l-.1,87a20.81,20.81,0,0,0,.8,5.6c1.7,5.7,7.6,13.6,21.3,13.5,22.2-.2,31.4-12.9,31.4-12.9l-2.7-3.7" transform="translate(0 -25.9)"></path><path class="cls-1" d="M388.7,158.6c.3,5.2,4,6.8,6.5,7.4a14,14,0,0,0,3.9.7v1.6H351v-1.5c3-.5,9-1.8,9.7-7.8l.1-48.8c0-9.4-2.9-15-9.5-18.3-7-3.5-14.2-2.2-22,3.8l-.4.3v61.7c0,7.6,5.7,8.5,8.7,8.9h.2v1.6H290.2v-1.5c3.2-.4,10.1-1.8,10.1-8.8,0-30.3,0-102.7-.1-104.4-.7-9.7-2.2-11.6-11.8-14l-.4-3.2c7.3-1.8,41.1-10.4,41.1-10.4V88.5l8.5-5.9c10.9-7.1,21.4-9.2,31.7-6.7,11.3,2.8,17.9,10.9,18.6,23Z" transform="translate(0 -25.9)"></path></svg> 